<?xml version="1.0" standalone="no"?>
<!DOCTYPE svg PUBLIC "-//W3C//DTD SVG 1.1//EN" "http://www.w3.org/Graphics/SVG/1.1/DTD/svg11.dtd" >
<!--
2013-9-30: Created.
-->
<svg>
<metadata>
Created by iconfont
</metadata>
<defs>

<font id="iconfont" horiz-adv-x="1024" >
  <font-face
    font-family="iconfont"
    font-weight="500"
    font-stretch="normal"
    units-per-em="1024"
    ascent="896"
    descent="-128"
  />
    <missing-glyph />
    
    <glyph glyph-name="search" unicode="&#59089;" d="M469.333333 42.666667c-213.333333 0-384 170.666667-384 384s170.666667 384 384 384 384-170.666667 384-384-170.666667-384-384-384z m0 682.666666c-166.4 0-298.666667-132.266667-298.666666-298.666666s132.266667-298.666667 298.666666-298.666667 298.666667 132.266667 298.666667 298.666667-132.266667 298.666667-298.666667 298.666666zM896-42.666667c-12.8 0-21.333333 4.266667-29.866667 12.8L682.666667 153.6c-17.066667 17.066667-17.066667 42.666667 0 59.733333s42.666667 17.066667 59.733333 0l183.466667-183.466666c17.066667-17.066667 17.066667-42.666667 0-59.733334-8.533333-8.533333-17.066667-12.8-29.866667-12.8z"  horiz-adv-x="1024" />

    
    <glyph glyph-name="thumb-up-outline" unicode="&#59622;" d="M213.333333 512v-512H42.666667V512h170.666666m170.666667-512a85.333333 85.333333 0 0 0-85.333333 85.333333V512c0 23.466667 9.386667 44.8 25.173333 60.16L604.586667 853.333333l45.226666-45.226666c11.52-11.52 18.773333-27.306667 18.773334-44.8l-1.28-13.653334L626.773333 554.666667H896a85.333333 85.333333 0 0 0 85.333333-85.333334v-85.333333c0-11.093333-2.133333-21.333333-5.973333-31.146667l-128.853333-300.8C833.706667 21.333333 803.413333 0 768 0H384m0 85.333333h385.28L896 384v85.333333h-375.04l48.213333 226.986667L384 510.72V85.333333z"  horiz-adv-x="1024" />

    
    <glyph glyph-name="angle-down" unicode="&#58887;" d="M506.114 225.161c-0-0-0-0-0.001-0-8.616 0-16.416 3.492-22.062 9.139l-277.607 277.607c-12.185 12.185-12.185 31.941 0 44.126 12.185 12.185 31.941 12.185 44.126 0l255.543-255.544 255.543 255.544c12.186 12.185 31.942 12.185 44.126 0 12.185-12.185 12.185-31.941 0-44.126l-277.605-277.607c-5.646-5.647-13.446-9.139-22.062-9.139-0 0-0 0-0.001 0z"  horiz-adv-x="1024" />

    
    <glyph glyph-name="angle-right" unicode="&#58888;" d="M369.647 67.293c-8.189 0-16.379 3.124-22.627 9.373-12.497 12.496-12.497 32.758 0 45.254l262.079 262.080-262.080 262.079c-12.497 12.497-12.497 32.758 0 45.255s32.758 12.497 45.255 0l284.706-284.707c12.497-12.497 12.497-32.758 0-45.254l-284.706-284.707c-6.248-6.249-14.438-9.373-22.627-9.373z"  horiz-adv-x="1024" />

    
    <glyph glyph-name="angle-left" unicode="&#58889;" d="M654.354 67.293c-8.189 0-16.379 3.124-22.627 9.373l-284.708 284.707c-5.791 5.791-9.372 13.791-9.372 22.627 0 8.836 3.582 16.836 9.372 22.627l284.708 284.707c12.496 12.497 32.758 12.497 45.254 0 12.497-12.497 12.497-32.758 0-45.255l-262.080-262.079 262.079-262.079c12.497-12.497 12.497-32.759 0-45.255-6.248-6.249-14.437-9.373-22.626-9.373z"  horiz-adv-x="1024" />

    
    <glyph glyph-name="angle-up" unicode="&#58890;" d="M796.706 209.646c-8.189 0-16.379 3.124-22.627 9.373l-262.079 262.080-262.079-262.079c-12.497-12.498-32.758-12.498-45.255 0-12.497 12.496-12.497 32.758 0 45.254l284.707 284.708c5.791 5.79 13.791 9.372 22.627 9.372s16.836-3.581 22.627-9.372l284.707-284.708c12.496-12.496 12.496-32.758-0.001-45.254-6.248-6.249-14.437-9.374-22.627-9.374z"  horiz-adv-x="1024" />

    
    <glyph glyph-name="netease-music" unicode="&#58960;" d="M604.71296 832.088747c-53.548373-19.667627-95.06816-77.038933-95.06816-132.222293 0-16.390827 3.822933-43.165013 8.741547-59.55584 4.911787-16.390827 7.645867-30.59712 6.557013-31.143253-0.546133-1.092267-18.03264-9.28768-38.792533-18.57536-72.669867-33.3312-124.576427-101.07904-134.956373-176.479573-18.029227-126.76096 60.101973-230.57408 173.202773-230.57408 72.666453 0 134.95296 43.165013 160.631467 110.36672 16.940373 45.89568 11.47904 104.905387-20.21376 204.89216-8.192 25.678507 54.64064-9.28768 95.617707-54.091093 50.26816-54.637227 68.297387-135.502507 46.987947-214.17984-19.124907-69.389653-77.03552-136.598187-146.428587-168.28416-184.674987-84.691627-385.737387 11.472213-440.920747 210.899627-20.763307 74.8544-13.66016 145.33632 22.401707 222.921387 27.86304 60.101973 86.326613 120.203947 146.97472 150.254933 48.626347 24.040107 58.463573 32.23552 62.83264 52.452693 3.826347 18.57536-8.741547 45.89568-25.678507 55.18336-36.061867 19.67104-118.019413-21.30944-192.8704-96.160427-68.84352-68.84352-101.625173-128.39936-119.657813-216.91392-38.792533-187.948373 57.91744-387.92192 227.84-470.429013 61.740373-30.59712 112.551253-42.06592 182.490453-42.06592 154.077867 0 289.57696 78.67392 355.689813 206.527147 32.781653 62.83264 40.977067 100.532907 37.700267 175.93344-2.73408 72.123733-10.92608 102.720853-40.98048 152.439467-49.718613 82.50368-134.406827 142.05952-216.364373 152.9856l-27.316907 3.280213-9.84064 32.781653c-13.653333 45.349547-12.56448 60.101973 4.37248 73.212587 18.029227 14.206293 37.700267 14.752427 62.286507 1.092267 46.441813-26.22464 54.64064-28.409173 73.216-22.398293 19.124907 6.007467 36.05504 30.047573 36.05504 51.357013 0 19.67104-26.76736 48.080213-63.924907 66.112853C696.507733 840.830293 639.68256 845.202773 604.71296 832.088747zM574.65856 435.968c19.12832-71.031467 20.76672-91.245227 9.291093-113.646933-18.57536-34.966187-72.666453-46.987947-99.44064-21.85216-22.401707 20.759893-29.50144 39.8848-29.50144 78.677333 0 40.434347 10.92608 67.20512 36.604587 90.699093 18.578773 17.483093 57.91744 38.2464 62.28992 33.327787C555.54048 500.985173 564.82816 470.934187 574.65856 435.968z"  horiz-adv-x="1024" />

    
    <glyph glyph-name="icon_Music" unicode="&#58925;" d="M512-64A448 448 0 1 0 802.133333 725.333333a42.666667 42.666667 0 0 0-55.466666-65.493333 362.666667 362.666667 0 1 1 112-170.666667l-226.346667-226.133333a170.666667 170.666667 0 1 0 44.16 164.906667l165.546667 167.04a42.666667 42.666667 0 0 0 37.333333 13.653333 42.666667 42.666667 0 0 0 32.426667-23.04A448 448 0 0 0 512-64z m0 533.333333a85.333333 85.333333 0 0 1-60.373333-145.706666 87.466667 87.466667 0 0 1 120.746666 0l2.133334 2.133333 1.066666 1.493333A85.333333 85.333333 0 0 1 512 469.333333z"  horiz-adv-x="1024" />

    
    <glyph glyph-name="accesspoint" unicode="&#58882;" d="M210.346667 685.653333C133.12 608.426667 85.333333 501.76 85.333333 384 85.333333 266.24 133.12 159.573333 210.346667 82.346667L270.506667 142.506667C208.64 203.946667 170.666667 289.28 170.666667 384 170.666667 478.293333 208.64 564.053333 270.506667 625.493333L210.346667 685.653333M813.653333 685.653333 753.493333 625.493333C815.36 564.053333 853.333333 478.293333 853.333333 384 853.333333 289.28 815.36 203.946667 753.493333 142.506667L813.653333 82.346667C890.88 159.573333 938.666667 266.24 938.666667 384 938.666667 501.76 890.88 608.426667 813.653333 685.653333M331.093333 564.906667C284.586667 518.4 256 454.4 256 384 256 313.6 284.586667 249.6 331.093333 203.093333L391.253333 263.253333C360.533333 293.973333 341.333333 336.64 341.333333 384 341.333333 431.36 360.533333 474.026667 391.253333 504.746667L331.093333 564.906667M692.906667 564.906667 632.746667 504.746667C663.466667 474.026667 682.666667 431.36 682.666667 384 682.666667 336.64 663.466667 293.973333 632.746667 263.253333L692.906667 203.093333C739.413333 249.6 768 313.6 768 384 768 454.4 739.413333 518.4 692.906667 564.906667M512 469.333333C465.066667 469.333333 426.666667 430.933333 426.666667 384 426.666667 337.066667 465.066667 298.666667 512 298.666667 558.933333 298.666667 597.333333 337.066667 597.333333 384 597.333333 430.933333 558.933333 469.333333 512 469.333333Z"  horiz-adv-x="1024" />

    
    <glyph glyph-name="signal" unicode="&#60050;" d="M128 0 256 0 256 128 128 128M341.333333 0 469.333333 0 469.333333 298.666667 341.333333 298.666667M554.666667 0 682.666667 0 682.666667 512 554.666667 512M768 0 896 0 896 768 768 768 768 0Z"  horiz-adv-x="1024" />

    
    <glyph glyph-name="viewdashboard" unicode="&#60234;" d="M554.666667 768 554.666667 512 896 512 896 768M554.666667 0 896 0 896 426.666667 554.666667 426.666667M128 0 469.333333 0 469.333333 256 128 256M128 341.333333 469.333333 341.333333 469.333333 768 128 768 128 341.333333Z"  horiz-adv-x="1024" />

    
    <glyph glyph-name="ic_assessment" unicode="&#59621;" d="M810.666667 768H213.333333c-47.146667 0-85.333333-38.186667-85.333333-85.333333v-597.333334c0-47.146667 38.186667-85.333333 85.333333-85.333333h597.333334c47.146667 0 85.333333 38.186667 85.333333 85.333333V682.666667c0 47.146667-38.186667 85.333333-85.333333 85.333333zM384 170.666667h-85.333333V469.333333h85.333333v-298.666666z m170.666667 0h-85.333334V597.333333h85.333334v-426.666666z m170.666666 0h-85.333333v170.666666h85.333333v-170.666666z"  horiz-adv-x="1024" />

    
    <glyph glyph-name="ranking" unicode="&#59723;" d="M426.666667 42.66666699999996h170.666666V725.333333h-170.666666v-682.666666zM170.666667 42.66666699999996h170.666666V384H170.666667v-341.333333z m512 469.333333v-469.333333h170.666666V512h-170.666666z"  horiz-adv-x="1024" />

    
    <glyph glyph-name="ic_surround_sound" unicode="&#59751;" d="M853.333333 725.333333H170.666667c-47.146667 0-85.333333-38.186667-85.333334-85.333333v-512c0-47.146667 38.186667-85.333333 85.333334-85.333333h682.666666c47.146667 0 85.333333 38.186667 85.333334 85.333333V640c0 47.146667-38.186667 85.333333-85.333334 85.333333zM330.88 202.88l-60.373333-60.373333A341.717333 341.717333 0 0 0 170.666667 384c0 87.466667 33.493333 174.72 100.053333 241.28l60.373333-60.373333A254.912 254.912 0 0 1 256 384c0-65.493333 24.96-131.2 74.88-181.12zM512 213.333333c-94.293333 0-170.666667 76.373333-170.666667 170.666667s76.373333 170.666667 170.666667 170.666667 170.666667-76.373333 170.666667-170.666667-76.373333-170.666667-170.666667-170.666667z m241.28-70.613333l-60.373333 60.373333C743.04 252.8 768 318.506667 768 384c0 65.493333-25.173333 131.2-74.88 181.12l60.373333 60.373333C819.84 558.72 853.333333 471.466667 853.333333 384c0-87.466667-33.493333-174.72-100.053333-241.28zM512 469.333333c-47.146667 0-85.333333-38.186667-85.333333-85.333333s38.186667-85.333333 85.333333-85.333333 85.333333 38.186667 85.333333 85.333333-38.186667 85.333333-85.333333 85.333333z"  horiz-adv-x="1024" />

    
    <glyph glyph-name="ic_insert_chart" unicode="&#59855;" d="M810.666667 768H213.333333c-47.146667 0-85.333333-38.186667-85.333333-85.333333v-597.333334c0-47.146667 38.186667-85.333333 85.333333-85.333333h597.333334c47.146667 0 85.333333 38.186667 85.333333 85.333333V682.666667c0 47.146667-38.186667 85.333333-85.333333 85.333333zM384 170.666667h-85.333333V469.333333h85.333333v-298.666666z m170.666667 0h-85.333334V597.333333h85.333334v-426.666666z m170.666666 0h-85.333333v170.666666h85.333333v-170.666666z"  horiz-adv-x="1024" />

    
    <glyph glyph-name="ic_radio_button_checked" unicode="&#60063;" d="M512 597.333333c-117.76 0-213.333333-95.573333-213.333333-213.333333s95.573333-213.333333 213.333333-213.333333 213.333333 95.573333 213.333333 213.333333-95.573333 213.333333-213.333333 213.333333z m0 213.333334C276.266667 810.666667 85.333333 619.733333 85.333333 384s190.933333-426.666667 426.666667-426.666667 426.666667 190.933333 426.666667 426.666667S747.733333 810.666667 512 810.666667z m0-768c-188.586667 0-341.333333 152.746667-341.333333 341.333333S323.413333 725.333333 512 725.333333s341.333333-152.746667 341.333333-341.333333-152.746667-341.333333-341.333333-341.333333z"  horiz-adv-x="1024" />

    
    <glyph glyph-name="history" unicode="&#59651;" d="M554.453333 768C342.186667 768 170.666667 596.0533330000001 170.666667 384H42.666667l166.186666-166.186667 2.986667-6.186666L384 384h-128c0 164.906667 133.76 298.666667 298.666667 298.666667s298.666667-133.76 298.666666-298.666667-133.76-298.666667-298.666666-298.666667c-82.56 0-157.013333 33.706667-210.986667 87.68l-60.373333-60.373333C352.64 43.09333300000003 448.426667 0 554.453333 0 766.72 0 938.666667 171.94666700000005 938.666667 384S766.72 768 554.453333 768zM512 554.666667v-213.333334l182.613333-108.373333L725.333333 284.79999999999995l-149.333333 88.533333V554.666667h-64z"  horiz-adv-x="1024" />

    
    <glyph glyph-name="minus" unicode="&#59788;" d="M810.666667 341.33333300000004H213.333333v85.333334h597.333334v-85.333334z"  horiz-adv-x="1024" />

    
    <glyph glyph-name="arrow-down" unicode="&#59879;" d="M316.373333 545.7066669999999L512 350.08000000000004l195.626667 195.626667L768 485.333333l-256-256-256 256z"  horiz-adv-x="1024" />

    
    <glyph glyph-name="arrow-left" unicode="&#59880;" d="M657.706667 199.03999999999996l-195.626667 195.626667 195.626667 195.626666L597.333333 650.666667l-256-256 256-256z"  horiz-adv-x="1024" />

    
    <glyph glyph-name="arrow-right" unicode="&#59881;" d="M366.293333 193.70666700000004l195.626667 195.626666-195.626667 195.626667L426.666667 645.333333l256-256-256-256z"  horiz-adv-x="1024" />

    
    <glyph glyph-name="arrow-up" unicode="&#59882;" d="M316.373333 238.29333299999996L512 433.92l195.626667-195.626667L768 298.66666699999996 512 554.666667 256 298.66666699999996z"  horiz-adv-x="1024" />

    
    <glyph glyph-name="menu-down" unicode="&#59727;" d="M298.666667 469.333333L512 256 725.333333 469.333333 298.666667 469.333333Z"  horiz-adv-x="1024" />

    
    <glyph glyph-name="menu-left" unicode="&#59728;" d="M597.333333 597.333333L384 384 597.333333 170.66666699999996 597.333333 597.333333Z"  horiz-adv-x="1024" />

    
    <glyph glyph-name="menu-right" unicode="&#59729;" d="M426.666667 170.66666699999996L640 384 426.666667 597.333333 426.666667 170.66666699999996Z"  horiz-adv-x="1024" />

    
    <glyph glyph-name="menu-up" unicode="&#59730;" d="M298.666667 256L512 469.333333 725.333333 256 298.666667 256Z"  horiz-adv-x="1024" />

    
    <glyph glyph-name="home" unicode="&#59650;" d="M426.666667 42.66666699999996V298.66666699999996h170.666666v-256h213.333334V384h128L512 768 85.333333 384h128v-341.333333z"  horiz-adv-x="1024" />

    
    <glyph glyph-name="github" unicode="&#59186;" d="M511.542857 881.942857C228.914286 882.057143 0 653.257143 0 370.857143 0 147.542857 143.2-42.285714 342.628571-112c26.857143-6.742857 22.742857 12.342857 22.742858 25.371429v88.571428c-155.085714-18.171429-161.371429 84.457143-171.771429 101.6C172.571429 139.428571 122.857143 148.571429 137.714286 165.714286c35.314286 18.171429 71.314286-4.571429 113.028571-66.171429 30.171429-44.685714 89.028571-37.142857 118.857143-29.714286 6.514286 26.857143 20.457143 50.857143 39.657143 69.485715-160.685714 28.8-227.657143 126.857143-227.657143 243.428571 0 56.571429 18.628571 108.571429 55.2 150.514286-23.314286 69.142857 2.171429 128.342857 5.6 137.142857 66.4 5.942857 135.428571-47.542857 140.8-51.771429 37.714286 10.171429 80.8 15.542857 129.028571 15.542858 48.457143 0 91.657143-5.6 129.714286-15.885715 12.914286 9.828571 76.914286 55.771429 138.628572 50.171429 3.314286-8.8 28.228571-66.628571 6.285714-134.857143 37.028571-42.057143 55.885714-94.514286 55.885714-151.2 0-116.8-67.428571-214.971429-228.571428-243.314286a145.714286 145.714286 0 0 0 43.542857-104v-128.571428c0.914286-10.285714 0-20.457143 17.142857-20.457143 202.4 68.228571 348.114286 259.428571 348.114286 484.685714 0 282.514286-229.028571 511.2-511.428572 511.2z"  horiz-adv-x="1024" />

    
    <glyph glyph-name="shuffle-disabled" unicode="&#59551;" d="M685.37566171 709.07936508V600.71957638H208.59259225v-86.68783035h476.78306946v-108.3597887L837.07936508 557.37566171M685.37566171 362.32804266999995V253.96825396999998H208.59259225v-86.68783035h476.78306946v-108.3597887l151.70370337 151.70370337"  horiz-adv-x="1024" />

    
    <glyph glyph-name="sequence" unicode="&#59534;" d="M709.17942506 699.48708027V775.67721022a19.71794223 19.71794223 0 0 0 32.33742605 15.18281606l162.4758468-135.38339375a19.71794223 19.71794223 0 0 0-12.6589191-34.86132211H117.64114897V699.48708027h591.53827609zM117.64114897 147.38468957999999h788.71770206v-78.87176986H117.64114897v78.87176986z m0 276.0511958h788.71770206v-78.87177076H117.64114897v78.87177076z"  horiz-adv-x="1024" />

    
    <glyph glyph-name="user" unicode="&#59616;" d="M512 810.666667C276.266667 810.666667 85.333333 619.733333 85.333333 384s190.933333-426.666667 426.666667-426.666667 426.666667 190.933333 426.666667 426.666667S747.733333 810.666667 512 810.666667z m0-128c70.613333 0 128-57.386667 128-128 0-70.826667-57.386667-128-128-128s-128 57.173333-128 128c0 70.613333 57.386667 128 128 128z m0-605.866667c-106.88 0-200.746667 54.613333-256 137.386667 1.066667 84.693333 170.88 131.413333 256 131.413333s254.72-46.72 256-131.413333c-55.253333-82.773333-149.12-137.386667-256-137.386667z"  horiz-adv-x="1024" />

    
    <glyph glyph-name="ic_code" unicode="&#59631;" d="M401.066667 187.733333L206.933333 384l196.266667 196.266667L341.333333 640 85.333333 384l256-256 59.733334 59.733333z m221.866666 0l196.266667 196.266667-196.266667 196.266667L682.666667 640l256-256-256-256-59.733334 59.733333z"  horiz-adv-x="1024" />

    
    <glyph glyph-name="ic_delete_forever" unicode="&#59634;" d="M256 85.333333c0-46.933333 38.4-85.333333 85.333333-85.333333h341.333334c46.933333 0 85.333333 38.4 85.333333 85.333333V597.333333H256v-512z m105.173333 303.786667l60.373334 60.373333L512 359.04l90.453333 90.453333 60.373334-60.373333L572.373333 298.666667l90.453334-90.453334-60.373334-60.373333L512 238.293333l-90.453333-90.453333-60.373334 60.373333L451.626667 298.666667l-90.453334 90.453333zM661.333333 725.333333l-42.666666 42.666667H405.333333l-42.666666-42.666667h-149.333334v-85.333333h597.333334V725.333333z"  horiz-adv-x="1024" />

    
    <glyph glyph-name="favorite-off" unicode="&#59641;" d="M704 768c-74.24 0-145.493333-34.56-192-88.96C465.493333 733.44 394.24 768 320 768 188.373333 768 85.333333 664.96 85.333333 533.333333c0-161.066667 145.066667-292.693333 364.8-492.16L512-14.933332999999948l61.866667 56.106666C793.6 240.64 938.666667 372.266667 938.666667 533.333333c0 131.626667-103.04 234.666667-234.666667 234.666667z m-187.52-663.68l-4.48-4.053333-4.48 4.053333C304.64 288.42666699999995 170.666667 410.026667 170.666667 533.333333c0 85.12 64.213333 149.333333 149.333333 149.333334 65.706667 0 129.706667-42.453333 152.106667-100.693334h79.573333C574.293333 640.213333 638.293333 682.666667 704 682.666667c85.12 0 149.333333-64.213333 149.333333-149.333334 0-123.306667-133.973333-244.906667-336.853333-429.013333z"  horiz-adv-x="1024" />

    
    <glyph glyph-name="favorite" unicode="&#59642;" d="M512-14.933332999999948l-61.866667 56.106666C230.4 240.64 85.333333 372.266667 85.333333 533.333333 85.333333 664.96 188.373333 768 320 768c74.24 0 145.493333-34.56 192-88.96C558.506667 733.44 629.76 768 704 768c131.626667 0 234.666667-103.04 234.666667-234.666667 0-161.066667-145.066667-292.693333-364.8-492.16L512-14.933332999999948z"  horiz-adv-x="1024" />

    
    <glyph glyph-name="ic_get_app" unicode="&#59646;" d="M810.666667 512h-170.666667V768H384v-256h-170.666667l298.666667-298.666667 298.666667 298.666667zM213.333333 128v-85.333333h597.333334v85.333333H213.333333z"  horiz-adv-x="1024" />

    
    <glyph glyph-name="delete-mini" unicode="&#59649;" d="M622.293333 554.666667L512 444.373333 401.706667 554.666667 341.333333 494.293333 451.626667 384 341.333333 273.70666700000004 401.706667 213.33333300000004 512 323.626667 622.293333 213.33333300000004 682.666667 273.70666700000004 572.373333 384 682.666667 494.293333 622.293333 554.666667zM512 810.666667C276.266667 810.666667 85.333333 619.733333 85.333333 384s190.933333-426.666667 426.666667-426.666667 426.666667 190.933333 426.666667 426.666667S747.733333 810.666667 512 810.666667z m0-768c-188.16 0-341.333333 153.173333-341.333333 341.333333S323.84 725.333333 512 725.333333s341.333333-153.173333 341.333333-341.333333-153.173333-341.333333-341.333333-341.333333z"  horiz-adv-x="1024" />

    
    <glyph glyph-name="settings" unicode="&#59686;" d="M829.013333 342.4c1.706667 13.653333 2.986667 27.52 2.986667 41.6s-1.28 27.946667-2.986667 41.6l90.24 70.613333c8.106667 6.4 10.453333 17.92 5.12 27.306667l-85.333333 147.84c-5.333333 9.173333-16.426667 13.013333-26.026667 9.173333l-106.24-42.88c-21.973333 16.853333-46.08 31.146667-72.106666 42.026667L618.666667 792.746667c-1.92 10.026667-10.666667 17.92-21.333334 17.92h-170.666666c-10.666667 0-19.413333-7.893333-21.12-17.92l-16-113.066667a315.733333 315.733333 0 0 1-72.106667-42.026667L211.2 680.533333a21.333333 21.333333 0 0 1-26.026667-9.173333l-85.333333-147.84c-5.333333-9.173333-2.986667-20.693333 5.12-27.306667l90.026667-70.613333C193.28 411.946667 192 398.08 192 384s1.28-27.946667 2.986667-41.6l-90.026667-70.613333c-8.106667-6.4-10.453333-17.92-5.12-27.306667l85.333333-147.84c5.333333-9.173333 16.426667-13.013333 26.026667-9.173333l106.24 42.88c21.973333-16.853333 46.08-31.146667 72.106667-42.026667l16-113.066667c1.706667-10.026667 10.453333-17.92 21.12-17.92h170.666666c10.666667 0 19.413333 7.893333 21.12 17.92l16 113.066667a315.733333 315.733333 0 0 1 72.106667 42.026667l106.24-42.88a21.333333 21.333333 0 0 1 26.026667 9.173333l85.333333 147.84c5.333333 9.173333 2.986667 20.693333-5.12 27.306667l-90.026667 70.613333zM512 234.66666699999996c-82.56 0-149.333333 66.773333-149.333333 149.333333s66.773333 149.333333 149.333333 149.333333 149.333333-66.773333 149.333333-149.333333-66.773333-149.333333-149.333333-149.333333z"  horiz-adv-x="1024" />

    
    <glyph glyph-name="good" unicode="&#59701;" d="M42.666667 0h170.666666V512H42.666667v-512z m938.666666 469.333333c0 47.146667-38.186667 85.333333-85.333333 85.333334H626.56l40.746667 194.986666c0.853333 4.266667 1.493333 8.746667 1.493333 13.44 0 17.706667-7.253333 33.706667-18.773333 45.226667L604.586667 853.333333 323.626667 572.373333C308.266667 556.8 298.666667 535.4666669999999 298.666667 512v-426.666667c0-47.146667 38.186667-85.333333 85.333333-85.333333h384c35.413333 0 65.706667 21.546667 78.506667 52.053333l128.64 300.8A85.333333 85.333333 0 0 1 981.333333 384v81.706667l-0.426666 0.426666L981.333333 469.333333z"  horiz-adv-x="1024" />

    
    <glyph glyph-name="ic_fast_rewind" unicode="&#59724;" d="M469.333333 128V640L106.666667 384l362.666666-256z m21.333334 256l362.666666-256V640L490.666667 384z"  horiz-adv-x="1024" />

    
    <glyph glyph-name="ic_fast_forward" unicode="&#59725;" d="M170.666667 128l362.666666 256L170.666667 640v-512z m384 512v-512l362.666666 256-362.666666 256z"  horiz-adv-x="1024" />

    
    <glyph glyph-name="pause" unicode="&#59734;" d="M256 85.33333300000004h170.666667V682.666667h-170.666667v-597.333334z m341.333333 597.333334v-597.333334h170.666667V682.666667h-170.666667z"  horiz-adv-x="1024" />

    
    <glyph glyph-name="pause-mini" unicode="&#59735;" d="M384 213.33333300000004h85.333333V554.666667h-85.333333v-341.333334z m128 597.333334C276.266667 810.666667 85.333333 619.733333 85.333333 384s190.933333-426.666667 426.666667-426.666667 426.666667 190.933333 426.666667 426.666667S747.733333 810.666667 512 810.666667z m0-768c-188.16 0-341.333333 153.173333-341.333333 341.333333S323.84 725.333333 512 725.333333s341.333333-153.173333 341.333333-341.333333-153.173333-341.333333-341.333333-341.333333z m42.666667 170.666666h85.333333V554.666667h-85.333333v-341.333334z"  horiz-adv-x="1024" />

    
    <glyph glyph-name="ic_pause_circle_filled" unicode="&#59736;" d="M512 810.666667C276.266667 810.666667 85.333333 619.733333 85.333333 384s190.933333-426.666667 426.666667-426.666667 426.666667 190.933333 426.666667 426.666667S747.733333 810.666667 512 810.666667z m-42.666667-597.333334h-85.333333V554.666667h85.333333v-341.333334z m170.666667 0h-85.333333V554.666667h85.333333v-341.333334z"  horiz-adv-x="1024" />

    
    <glyph glyph-name="ic_play_circle_filled" unicode="&#59737;" d="M512 810.666667C276.266667 810.666667 85.333333 619.733333 85.333333 384s190.933333-426.666667 426.666667-426.666667 426.666667 190.933333 426.666667 426.666667S747.733333 810.666667 512 810.666667z m-85.333333-618.666667V576l256-192-256-192z"  horiz-adv-x="1024" />

    
    <glyph glyph-name="play" unicode="&#59738;" d="M341.333333 682.666667v-597.333334l469.333334 298.666667z"  horiz-adv-x="1024" />

    
    <glyph glyph-name="play-mini" unicode="&#59741;" d="M426.666667 192l256 192-256 192v-384z m85.333333 618.666667C276.266667 810.666667 85.333333 619.733333 85.333333 384s190.933333-426.666667 426.666667-426.666667 426.666667 190.933333 426.666667 426.666667S747.733333 810.666667 512 810.666667z m0-768c-188.16 0-341.333333 153.173333-341.333333 341.333333S323.84 725.333333 512 725.333333s341.333333-153.173333 341.333333-341.333333-153.173333-341.333333-341.333333-341.333333z"  horiz-adv-x="1024" />

    
    <glyph glyph-name="ic_playlist_play" unicode="&#59742;" d="M810.666667 512H85.333333v-85.333333h725.333334V512z m0 170.666667H85.333333v-85.333334h725.333334v85.333334zM85.333333 256h554.666667v85.333333H85.333333v-85.333333z m640 85.333333v-256l213.333334 128-213.333334 128z"  horiz-adv-x="1024" />

    
    <glyph glyph-name="playlist-menu" unicode="&#59743;" d="M640 640H128v-85.333333h512v85.333333z m0-170.666667H128v-85.333333h512v85.333333zM128 213.33333300000004h341.333333v85.333334H128v-85.333334z m597.333333 426.666667v-349.226667c-13.44 4.906667-27.52 7.893333-42.666666 7.893334-70.613333 0-128-57.386667-128-128s57.386667-128 128-128 128 57.386667 128 128V554.666667h128v85.333333H725.333333z"  horiz-adv-x="1024" />

    
    <glyph glyph-name="loop" unicode="&#59744;" d="M288.345834 607.654166h447.308332v-134.19249981l178.92333344 178.92333343-178.92333344 178.92333343v-134.19249981H198.88416676v-268.38499962h89.46166724v178.92333238z m447.308332-447.308332H288.345834v134.19249981l-178.92333344-178.92333343 178.92333344-178.92333343v134.19249981h536.76999924V339.26916638h-89.46166724v-178.92333238z"  horiz-adv-x="1024" />

    
    <glyph glyph-name="loop-one" unicode="&#59745;" d="M288.345834 607.654166h447.308332v-134.19249981l178.92333344 178.92333343-178.92333344 178.92333343v-134.19249981H198.88416676v-268.38499962h89.46166724v178.92333238z m447.308332-447.308332H288.345834v134.19249981l-178.92333344-178.92333343 178.92333344-178.92333343v134.19249981h536.76999924V339.26916638h-89.46166724v-178.92333238z m-178.92333238 89.46166619V518.1924998100001h-44.73083362l-89.46166619-44.73083362v-44.73083257h67.09624991v-178.92333343h67.0962499z"  horiz-adv-x="1024" />

    
    <glyph glyph-name="ic_replay" unicode="&#59746;" d="M512 682.666667V853.333333L298.666667 640l213.333333-213.333333v170.666666c141.44 0 256-114.56 256-256s-114.56-256-256-256-256 114.56-256 256H170.666667c0-188.586667 152.746667-341.333333 341.333333-341.333333s341.333333 152.746667 341.333333 341.333333-152.746667 341.333333-341.333333 341.333334z"  horiz-adv-x="1024" />

    
    <glyph glyph-name="random" unicode="&#59747;" d="M451.626667 504.746667L231.04 725.333333 170.666667 664.96l220.586666-220.586667 60.373334 60.373334zM618.666667 725.333333l87.253333-87.253333L170.666667 103.03999999999996 231.04 42.66666699999996l535.253333 535.253333L853.333333 490.666667V725.333333H618.666667z m14.08-401.706666l-60.373334-60.373334 133.546667-133.546666L618.666667 42.66666699999996h234.666666V277.33333300000004l-87.253333-87.253333-133.333333 133.546667z"  horiz-adv-x="1024" />

    
    <glyph glyph-name="next" unicode="&#59748;" d="M256 128l362.666667 256-362.666667 256v-512z m426.666667 512v-512h85.333333V640h-85.333333z"  horiz-adv-x="1024" />

    
    <glyph glyph-name="prev" unicode="&#59749;" d="M256 640h85.333333v-512h-85.333333z m149.333333-256l362.666667-256V640z"  horiz-adv-x="1024" />

    
    <glyph glyph-name="ic_volume_down" unicode="&#59753;" d="M789.333333 384c0 75.306667-43.52 140.373333-106.666666 171.733333v-343.68c63.146667 31.573333 106.666667 96.64 106.666666 171.946667z m-576 128v-256h170.666667l213.333333-213.333333V725.333333L384 512h-170.666667z"  horiz-adv-x="1024" />

    
    <glyph glyph-name="volume-off" unicode="&#59754;" d="M704 384c0 75.306667-43.52 140.373333-106.666667 171.733333v-94.293333l104.746667-104.746667c1.28 8.96 1.92 18.133333 1.92 27.306667z m106.666667 0c0-40.106667-8.746667-77.866667-23.04-112.64l64.64-64.64C880 259.84000000000003 896 320 896 384c0 182.613333-127.786667 335.36-298.666667 374.186667v-88.106667c123.306667-36.693333 213.333333-150.826667 213.333334-286.08zM182.4 768L128 713.6 329.6 512H128v-256h170.666667l213.333333-213.333333V329.6l181.546667-181.546667c-28.586667-21.973333-60.8-39.68-96.213334-50.346666v-88.106667a382.72 382.72 0 0 1 157.226667 77.226667L841.6 0 896 54.39999999999998l-384 384L182.4 768zM512 725.333333l-89.173333-89.173333L512 546.986667V725.333333z"  horiz-adv-x="1024" />

    
    <glyph glyph-name="volume" unicode="&#59755;" d="M128 512v-256h170.666667l213.333333-213.333333V725.333333L298.666667 512H128z m576-128c0 75.306667-43.52 140.373333-106.666667 171.733333v-343.68c63.146667 31.573333 106.666667 96.64 106.666667 171.946667zM597.333333 758.1866669999999v-88.106667c123.306667-36.693333 213.333333-150.826667 213.333334-286.08s-90.026667-249.386667-213.333334-286.08v-88.106667c170.88 38.826667 298.666667 191.36 298.666667 374.186667S768.213333 719.36 597.333333 758.1866669999999z"  horiz-adv-x="1024" />

    
    <glyph glyph-name="volume-mute" unicode="&#59756;" d="M298.666667 512v-256h170.666666l213.333334-213.333333V725.333333L469.333333 512h-170.666666z"  horiz-adv-x="1024" />

    
    <glyph glyph-name="comment" unicode="&#59758;" d="M842.74999968 797.43750032H181.25000032C135.56515625 797.43750032 98.9759375 760.43484375 98.9759375 714.74999968L98.56249968-29.437500320000026l165.37500032 165.37500032h578.81249968c45.68484407 0 82.68749968 37.00265657 82.68750064 82.68749968V714.74999968c0 45.68484407-37.00265657 82.68749968-82.68750064 82.68750064zM263.9375 508.03125h496.125v-82.68749968H263.9375v82.68749968z m330.74999968-206.71874968H263.9375v82.68749968h330.74999968v-82.68749968z m165.37500032 248.0625H263.9375v82.68749968h496.125v-82.68749968z"  horiz-adv-x="1024" />

    
    <glyph glyph-name="ic_chat_bubble" unicode="&#59759;" d="M853.333333 810.666667H170.666667C123.52 810.666667 85.333333 772.48 85.333333 725.333333v-768l170.666667 170.666667h597.333333c47.146667 0 85.333333 38.186667 85.333334 85.333333V725.333333c0 47.146667-38.186667 85.333333-85.333334 85.333334z"  horiz-adv-x="1024" />

    
    <glyph glyph-name="ic_chat_bubble_outline" unicode="&#59760;" d="M853.333333 810.666667H170.666667C123.52 810.666667 85.333333 772.48 85.333333 725.333333v-768l170.666667 170.666667h597.333333c47.146667 0 85.333333 38.186667 85.333334 85.333333V725.333333c0 47.146667-38.186667 85.333333-85.333334 85.333334z m0-597.333334H256l-85.333333-85.333333V725.333333h682.666666v-512z"  horiz-adv-x="1024" />

    
    <glyph glyph-name="plus" unicode="&#59775;" d="M810.666667 341.33333300000004H554.666667v-256h-85.333334V341.33333300000004H213.333333v85.333334h256V682.666667h85.333334v-256h256v-85.333334z"  horiz-adv-x="1024" />

    
    <glyph glyph-name="clear" unicode="&#59777;" d="M810.666667 622.2933330000001L750.293333 682.666667 512 444.373333 273.706667 682.666667 213.333333 622.2933330000001 451.626667 384 213.333333 145.70666700000004 273.706667 85.33333300000004 512 323.626667 750.293333 85.33333300000004 810.666667 145.70666700000004 572.373333 384z"  horiz-adv-x="1024" />

    
    <glyph glyph-name="copy" unicode="&#59778;" d="M682.666667 853.333333H170.666667C123.52 853.333333 85.333333 815.146667 85.333333 768v-597.333333h85.333334V768h512V853.333333z m128-170.666666H341.333333c-47.146667 0-85.333333-38.186667-85.333333-85.333334v-597.333333c0-47.146667 38.186667-85.333333 85.333333-85.333333h469.333334c47.146667 0 85.333333 38.186667 85.333333 85.333333V597.333333c0 47.146667-38.186667 85.333333-85.333333 85.333334z m0-682.666667H341.333333V597.333333h469.333334v-597.333333z"  horiz-adv-x="1024" />

    
    <glyph glyph-name="fold" unicode="&#59847;" d="M469.333333 170.66666699999996h426.666667v85.333333H469.333333v-85.333333zM128 384l170.666667-170.666667V554.666667l-170.666667-170.666667z m0-384h768v85.333333H128v-85.333333zM128 768v-85.333333h768V768H128z m341.333333-256h426.666667v85.333333H469.333333v-85.333333z m0-170.666667h426.666667v85.333334H469.333333v-85.333334z"  horiz-adv-x="1024" />

    
    <glyph glyph-name="unfold" unicode="&#59848;" d="M128 0h768v85.333333H128v-85.333333z m0 554.666667v-341.333334l170.666667 170.666667-170.666667 170.666667z m341.333333-384h426.666667v85.333333H469.333333v-85.333333zM128 768v-85.333333h768V768H128z m341.333333-256h426.666667v85.333333H469.333333v-85.333333z m0-170.666667h426.666667v85.333334H469.333333v-85.333334z"  horiz-adv-x="1024" />

    
    <glyph glyph-name="ic_music_note" unicode="&#59945;" d="M512 768v-450.346667c-25.173333 14.72-54.186667 23.68-85.333333 23.68-94.293333 0-170.666667-76.373333-170.666667-170.666666s76.373333-170.666667 170.666667-170.666667 170.666667 76.373333 170.666666 170.666667V597.333333h170.666667V768H512z"  horiz-adv-x="1024" />

    
    <glyph glyph-name="ic_remove_red_eye" unicode="&#59956;" d="M512 704C298.666667 704 116.48 571.306667 42.666667 384c73.813333-187.306667 256-320 469.333333-320s395.52 132.693333 469.333333 320C907.52 571.306667 725.546667 704 512 704z m0-533.333333c-117.76 0-213.333333 95.573333-213.333333 213.333333s95.573333 213.333333 213.333333 213.333333 213.333333-95.573333 213.333333-213.333333-95.573333-213.333333-213.333333-213.333333z m0 341.333333c-70.613333 0-128-57.386667-128-128s57.386667-128 128-128 128 57.386667 128 128-57.386667 128-128 128z"  horiz-adv-x="1024" />

    
    <glyph glyph-name="ic_arrow_back" unicode="&#60003;" d="M853.333333 426.666667H334.08l238.293333 238.293333L512 725.333333 170.666667 384l341.333333-341.333333 60.373333 60.373333L334.08 341.333333H853.333333v85.333334z"  horiz-adv-x="1024" />

    
    <glyph glyph-name="ic_apps" unicode="&#60005;" d="M170.666667 554.666667h170.666666V725.333333H170.666667v-170.666666z m256-512h170.666666v170.666666h-170.666666v-170.666666zM170.666667 42.666667h170.666666v170.666666H170.666667v-170.666666z m0 256h170.666666v170.666666H170.666667v-170.666666z m256 0h170.666666v170.666666h-170.666666v-170.666666zM682.666667 725.333333v-170.666666h170.666666V725.333333h-170.666666z m-256-170.666666h170.666666V725.333333h-170.666666v-170.666666z m256-256h170.666666v170.666666h-170.666666v-170.666666z m0-256h170.666666v170.666666h-170.666666v-170.666666z"  horiz-adv-x="1024" />

    
    <glyph glyph-name="ic_arrow_downward" unicode="&#60006;" d="M853.333333 384l-60.16 60.16L554.666667 206.08000000000004V725.333333h-85.333334v-519.253333L231.253333 444.586667 170.666667 384l341.333333-341.333333 341.333333 341.333333z"  horiz-adv-x="1024" />

    
    <glyph glyph-name="ic_arrow_forward" unicode="&#60008;" d="M512 725.333333l-60.373333-60.373333L689.92 426.666667H170.666667v-85.333334h519.253333L451.626667 103.04 512 42.666667l341.333333 341.333333z"  horiz-adv-x="1024" />

    
    <glyph glyph-name="ic_arrow_upward" unicode="&#60009;" d="M170.666667 384l60.373333-60.373333L469.333333 561.92V42.666667h85.333334V561.92l238.293333-238.293333L853.333333 384 512 725.333333 170.666667 384z"  horiz-adv-x="1024" />

    
    <glyph glyph-name="ic_cancel" unicode="&#60010;" d="M512 810.666667C276.266667 810.666667 85.333333 619.733333 85.333333 384s190.933333-426.666667 426.666667-426.666667 426.666667 190.933333 426.666667 426.666667S747.733333 810.666667 512 810.666667z m213.333333-579.626667L664.96 170.666667 512 323.626667 359.04 170.666667 298.666667 231.04 451.626667 384 298.666667 536.96 359.04 597.333333 512 444.373333 664.96 597.333333 725.333333 536.96 572.373333 384 725.333333 231.04z"  horiz-adv-x="1024" />

    
    <glyph glyph-name="close" unicode="&#60013;" d="M810.666667 622.2933330000001L750.293333 682.666667 512 444.373333 273.706667 682.666667 213.333333 622.2933330000001 451.626667 384 213.333333 145.70666700000004 273.706667 85.33333300000004 512 323.626667 750.293333 85.33333300000004 810.666667 145.70666700000004 572.373333 384z"  horiz-adv-x="1024" />

    
    <glyph glyph-name="ic_first_page" unicode="&#60016;" d="M785.493333 188.16L589.653333 384l195.84 195.84L725.333333 640 469.333333 384l256-256zM256 640h85.333333v-512h-85.333333z"  horiz-adv-x="1024" />

    
    <glyph glyph-name="fullscreen" unicode="&#60017;" d="M298.666667 298.66666699999996h-85.333334v-213.333334h213.333334v85.333334h-128v128z m-85.333334 170.666666h85.333334v128h128v85.333334H213.333333v-213.333334z m512-298.666666h-128v-85.333334h213.333334V298.66666699999996h-85.333334v-128z m-128 512v-85.333334h128v-128h85.333334V682.666667H597.333333z"  horiz-adv-x="1024" />

    
    <glyph glyph-name="fullscreen-exit" unicode="&#60018;" d="M213.333333 213.33333300000004h128v-128h85.333334V298.66666699999996H213.333333v-85.333334z m128 341.333334h-128v-85.333334h213.333334V682.666667h-85.333334v-128z m256-469.333334h85.333334v128h128v85.333334H597.333333v-213.333334z m85.333334 469.333334v128h-85.333334v-213.333334h213.333334v85.333334h-128z"  horiz-adv-x="1024" />

    
    <glyph glyph-name="ic_last_page" unicode="&#60019;" d="M238.506667 579.84L434.346667 384l-195.84-195.84L298.666667 128l256 256-256 256zM682.666667 640h85.333333v-512h-85.333333z"  horiz-adv-x="1024" />

    
    <glyph glyph-name="ic_menu" unicode="&#60020;" d="M128 128h768v85.333333H128v-85.333333z m0 213.333333h768v85.333334H128v-85.333334z m0 298.666667v-85.333333h768v85.333333H128z"  horiz-adv-x="1024" />

    
    <glyph glyph-name="refresh" unicode="&#60023;" d="M753.066667 625.066667C691.413333 686.933333 606.293333 725.333333 512 725.333333 323.413333 725.333333 171.093333 572.586667 171.093333 384S323.413333 42.66666699999996 512 42.66666699999996c158.933333 0 292.053333 108.8 329.813333 256H753.066667c-35.2-99.413333-129.493333-170.666667-241.066667-170.666667-141.44 0-256 114.56-256 256s114.56 256 256 256c70.613333 0 133.973333-29.44 180.266667-75.733333L554.666667 426.666667h298.666666V725.333333l-100.266666-100.266666z"  horiz-adv-x="1024" />

    
    <glyph glyph-name="shrink" unicode="&#60024;" d="M316.373333 103.03999999999996L376.746667 42.66666699999996 512 177.91999999999996 647.253333 42.66666699999996l60.373334 60.373333L512 298.66666699999996l-195.626667-195.626667z m391.253334 561.92L647.253333 725.333333 512 590.0799999999999 376.746667 725.333333l-60.373334-60.373333L512 469.333333l195.626667 195.626667z"  horiz-adv-x="1024" />

    
    <glyph glyph-name="open" unicode="&#60025;" d="M512 647.253333L647.253333 512l60.373334 60.373333L512 768l-195.626667-195.626667L376.746667 512 512 647.253333z m0-526.506666L376.746667 256l-60.373334-60.373333L512 0l195.626667 195.626667L647.253333 256 512 120.746667z"  horiz-adv-x="1024" />

    
    <glyph glyph-name="share" unicode="&#60062;" d="M768 209.70666700000004c-32.426667 0-61.653333-12.586667-83.84-32.853334L380.16 354.133333c2.346667 9.6 3.84 19.626667 3.84 29.866667s-1.493333 20.266667-3.84 29.866667l300.8 175.573333c22.826667-21.333333 53.333333-34.56 87.04-34.56 70.613333 0 128 57.386667 128 128s-57.386667 128-128 128-128-57.386667-128-128c0-10.24 1.493333-20.266667 3.84-29.866667l-300.8-175.573333c-22.826667 21.333333-53.333333 34.56-87.04 34.56-70.613333 0-128-57.386667-128-128s57.386667-128 128-128c33.706667 0 64.213333 13.226667 87.04 34.56l304-177.28c-2.133333-8.96-3.413333-18.346667-3.413333-27.946667A124.373333 124.373333 0 1 1 768 209.70666700000004z"  horiz-adv-x="1024" />

    


  </font>
</defs>
</svg>
